<?xml version="1.0" standalone="no"?>
<!DOCTYPE svg PUBLIC "-//W3C//DTD SVG 20010904//EN"
 "http://www.w3.org/TR/2001/REC-SVG-20010904/DTD/svg10.dtd">
<svg version="1.0" xmlns="http://www.w3.org/2000/svg"
 width="850.000000pt" height="589.000000pt" viewBox="0 0 850.000000 589.000000"
 preserveAspectRatio="xMidYMid meet">

<g transform="translate(0.000000,589.000000) scale(0.100000,-0.100000)"
fill="#000000" stroke="none">
<path d="M3689 5516 c-2 -2 -137 -7 -299 -10 -162 -4 -308 -9 -325 -11 -16 -2
-93 -7 -170 -10 -424 -17 -598 -45 -760 -121 -64 -30 -222 -142 -252 -179 -35
-42 -97 -166 -128 -253 -68 -193 -107 -300 -119 -327 -27 -59 -126 -314 -126
-324 0 -6 -11 -34 -24 -63 -13 -29 -31 -75 -41 -103 -18 -53 -24 -69 -47 -125
-8 -19 -21 -49 -27 -67 -17 -43 -45 -66 -69 -59 -24 8 -52 44 -110 142 -89
149 -151 194 -265 194 -78 0 -121 -12 -227 -64 -30 -14 -59 -26 -63 -26 -14 0
-93 -64 -119 -98 -33 -42 -63 -149 -54 -195 4 -19 14 -43 24 -54 20 -23 114
-78 187 -109 232 -99 290 -126 293 -135 2 -5 10 -16 18 -23 12 -13 12 -17 -1
-30 -8 -8 -15 -19 -15 -25 0 -5 -6 -16 -14 -24 -16 -16 -116 -193 -116 -205 0
-7 -79 -145 -110 -192 -6 -8 -13 -22 -17 -30 -3 -8 -32 -58 -64 -110 -32 -53
-68 -120 -80 -150 l-23 -55 0 -710 c1 -801 5 -868 57 -953 17 -29 66 -86 108
-126 l76 -75 7 -373 c4 -237 11 -385 19 -405 l11 -33 467 0 c422 0 468 2 480
17 11 13 15 84 17 347 2 341 7 384 41 371 38 -15 2752 0 2781 15 8 5 260 8
560 8 300 0 720 1 934 2 315 1 390 -1 397 -12 5 -7 9 -165 9 -351 0 -302 2
-342 17 -368 l17 -29 467 0 c422 0 468 2 480 17 11 13 15 106 17 492 l3 476
23 25 c42 45 74 114 86 180 8 45 10 292 8 795 l-3 730 -34 65 c-33 65 -47 90
-115 208 -20 35 -36 66 -36 69 0 2 -11 19 -24 36 -13 18 -43 68 -66 112 -24
44 -52 96 -64 115 -39 64 -45 75 -52 90 -4 8 -23 38 -41 67 -19 29 -33 62 -31
73 3 23 14 29 257 150 172 85 215 112 236 144 24 36 21 123 -5 179 -24 51 -79
117 -98 117 -7 0 -12 4 -12 8 0 14 -132 69 -210 86 -101 23 -161 22 -212 -3
-71 -34 -102 -70 -172 -194 -50 -91 -66 -107 -107 -107 -50 0 -75 36 -124 175
-21 61 -62 166 -90 235 -29 69 -69 170 -90 225 -21 55 -49 123 -61 150 -13 28
-44 104 -69 170 -69 179 -118 273 -181 343 -74 82 -119 112 -240 161 -218 88
-289 100 -719 120 -174 8 -1568 14 -1576 7z m1151 -160 c19 -3 136 -6 260 -7
460 -4 659 -29 834 -104 63 -27 180 -110 221 -157 35 -41 85 -129 85 -152 1
-6 9 -29 20 -51 10 -22 49 -132 86 -245 36 -113 77 -233 90 -266 25 -68 63
-201 71 -252 8 -49 -21 -113 -59 -136 -43 -26 -257 -35 -868 -36 -412 -1 -493
1 -622 16 -94 11 -46 21 78 17 156 -6 176 -2 172 34 -4 34 -24 38 -208 47 -74
4 -171 9 -215 11 -100 6 -682 23 -872 25 -137 1 -143 1 -143 -19 0 -11 5 -23
11 -26 10 -6 124 -15 379 -30 63 -4 153 -10 200 -15 127 -12 227 -58 133 -61
-21 -1 -119 -2 -218 -3 -99 -1 -373 -6 -610 -10 -400 -7 -443 -6 -614 14 -102
11 -187 23 -190 25 -14 15 20 17 126 8 65 -5 156 -9 203 -9 79 1 85 2 88 23 5
33 -20 40 -178 47 -80 4 -197 11 -260 16 -63 5 -250 11 -415 15 -165 3 -349 8
-410 11 -114 6 -165 -3 -165 -30 0 -21 19 -25 131 -27 56 -1 128 -8 158 -15
38 -9 89 -11 158 -7 60 3 120 1 145 -5 24 -6 70 -16 103 -23 63 -14 97 -35 77
-48 -6 -4 -62 -6 -124 -5 -62 1 -262 3 -445 3 -211 1 -340 5 -355 11 -13 6
-34 27 -47 46 -21 30 -23 42 -18 97 4 34 25 118 47 187 22 69 45 143 51 165 5
22 14 49 19 60 5 11 38 112 75 225 74 230 98 273 208 381 77 76 144 114 273
157 118 40 197 50 489 63 132 5 330 14 440 19 110 5 346 12 525 16 179 4 327
9 330 11 6 6 698 -5 750 -11z m2559 -2549 c25 -13 53 -34 63 -47 25 -34 46
-140 59 -294 14 -167 -3 -256 -59 -318 -66 -73 -60 -72 -602 -158 -69 -11
-161 -24 -205 -30 -44 -6 -114 -18 -155 -26 -85 -17 -135 -12 -167 19 -20 17
-23 31 -23 89 0 38 6 90 14 116 8 26 30 99 49 163 97 321 162 369 612 455 50
10 126 25 170 34 117 25 190 24 244 -3z m-6329 -61 c69 -14 179 -34 245 -46
66 -11 149 -30 185 -41 123 -37 221 -126 236 -214 3 -22 10 -44 14 -50 7 -9
29 -76 80 -240 25 -80 36 -161 26 -199 -8 -33 -53 -56 -109 -56 -48 0 -281 24
-392 40 -38 6 -166 24 -284 40 -118 17 -232 35 -253 42 -55 16 -113 70 -142
133 -23 48 -26 66 -26 172 0 147 23 325 47 365 54 92 125 102 373 54z m4595
-510 c15 -22 14 -28 -9 -86 -68 -167 -158 -278 -273 -338 -111 -57 -209 -74
-613 -106 -107 -9 -276 -23 -375 -32 -209 -18 -485 -20 -600 -5 -44 6 -224 22
-400 36 -453 35 -486 41 -602 96 -72 35 -184 147 -223 224 -14 27 -37 69 -52
94 -31 50 -36 92 -13 111 18 15 26 14 500 -29 182 -17 386 -35 455 -41 165
-15 591 -19 860 -9 262 9 636 40 945 78 127 16 265 29 307 30 71 1 79 -1 93
-23z m1526 -895 c44 -47 57 -101 37 -158 -47 -135 -228 -138 -284 -4 -19 45
-18 79 5 121 29 55 73 80 144 80 57 0 62 -2 98 -39z m-5994 -38 c96 -77 72
-215 -44 -259 -85 -33 -171 19 -192 115 -10 46 -9 58 8 96 38 85 153 110 228
48z"/>
<path d="M7224 2709 c-40 -11 -74 -48 -84 -93 -7 -32 1 -189 16 -314 8 -64 59
-112 119 -112 35 0 52 6 77 29 l33 29 -1 134 c-1 170 -10 239 -37 279 -26 39
-79 59 -123 48z"/>
<path d="M6655 2506 c-22 -13 -53 -42 -70 -65 -25 -36 -30 -54 -33 -116 -4
-65 -1 -78 19 -107 50 -71 93 -97 173 -105 45 -4 56 -1 101 28 64 43 81 64 94
116 24 92 11 162 -39 215 -57 61 -171 76 -245 34z m198 -51 c32 -21 52 -56 62
-107 9 -46 -21 -115 -67 -157 -30 -27 -40 -30 -98 -30 -54 0 -69 4 -90 22 -63
58 -83 157 -42 215 12 16 22 34 22 39 0 9 65 40 95 45 32 6 88 -7 118 -27z"/>
<path d="M861 2648 c-52 -18 -62 -55 -73 -258 -10 -194 -6 -210 46 -237 44
-23 100 -21 133 3 37 27 49 77 58 241 9 164 2 218 -30 239 -32 21 -91 26 -134
12z"/>
<path d="M1342 2478 c-40 -11 -68 -34 -90 -73 -60 -111 -55 -190 19 -263 84
-85 214 -82 306 7 36 35 48 87 41 177 -4 50 -9 59 -54 103 -45 44 -56 50 -105
55 -62 6 -72 6 -117 -6z m175 -64 c69 -52 80 -141 29 -222 -31 -49 -57 -62
-125 -62 -110 0 -151 43 -154 160 -2 67 -1 71 31 100 55 50 82 61 136 56 31
-4 60 -15 83 -32z"/>
</g>
</svg>
